<svg width="19" height="20" viewBox="0 0 19 20" fill="none" xmlns="http://www.w3.org/2000/svg">
<path d="M8.67687 0.978378C8.94934 0.00418401 10.3305 0.00418472 10.6029 0.978379L12.0313 6.08518C12.1521 6.51715 12.5458 6.81583 12.9943 6.81583H17.9004C18.8326 6.81583 19.2577 7.97876 18.5454 8.58001L14.3311 12.137C14.0318 12.3896 13.9075 12.7935 14.013 13.1706L15.5603 18.7027C15.8255 19.651 14.7048 20.3714 13.9523 19.7362L10.2849 16.6409C9.91238 16.3265 9.36743 16.3265 8.99491 16.6409L5.32755 19.7362C4.57503 20.3714 3.45427 19.651 3.71952 18.7027L5.26681 13.1706C5.37227 12.7935 5.24797 12.3896 4.94876 12.137L0.734427 8.58001C0.0220697 7.97876 0.447246 6.81583 1.37942 6.81583H6.2855C6.73404 6.81583 7.12772 6.51715 7.24854 6.08518L8.67687 0.978378Z" fill="url(#paint0_linear_1_96)"/>
<defs>
<linearGradient id="paint0_linear_1_96" x1="9.62699" y1="-2.46484" x2="9.62699" y2="39.6193" gradientUnits="userSpaceOnUse">
<stop stop-color="#FFE998"/>
<stop offset="1" stop-color="#57370D"/>
</linearGradient>
</defs>
</svg>
